<svg xmlns="http://www.w3.org/2000/svg" viewBox="0 0 56.3 56" width="100%" height="100%" fill="currentColor">
  <path d="M55.9668 27.9941C55.9668 43.4414 43.4199 55.9668 27.9727 55.9668C12.5254 55.9668 0 43.4414 0 27.9941C0 12.5469 12.5254 0 27.9727 0C43.4199 0 55.9668 12.5469 55.9668 27.9941ZM26.8513 1.405C25.0456 1.66661 23.3284 2.591 21.7774 4.08072C17.7095 5.12185 14.0485 7.17595 11.0826 9.96472C10.8852 9.85626 10.7149 9.73114 10.5488 9.60352C9.81836 9.04492 8.91602 9.00195 8.29297 9.60352C7.69141 10.2051 7.69141 11.1934 8.35742 11.7949C8.54015 11.9526 8.73151 12.1079 8.9384 12.2587C5.70588 16.1376 3.65698 21.0353 3.33325 26.4043L2.85742 26.4043C1.97656 26.4043 1.26758 27.1133 1.26758 27.9941C1.26758 28.8535 1.97656 29.5625 2.85742 29.5625L3.33223 29.5625C3.65468 34.9716 5.73316 39.9052 9.01306 43.7989C8.78083 43.9694 8.56363 44.1443 8.35742 44.3223C7.69141 44.9238 7.69141 45.9121 8.29297 46.5137C8.91602 47.1152 9.81836 47.0723 10.5488 46.5137C10.7418 46.3654 10.9405 46.2204 11.1691 46.0939C14.0992 48.8112 17.6921 50.823 21.6795 51.861C23.2208 53.3643 24.9268 54.3125 26.7204 54.6039C27.0064 54.9871 27.4631 55.2363 27.9727 55.2363C28.4964 55.2363 28.9595 54.9856 29.2473 54.6006C31.0382 54.3057 32.7393 53.3588 34.2755 51.8607C38.2679 50.8225 41.8639 48.8104 44.7958 46.0927C45.0251 46.2196 45.2244 46.3649 45.418 46.5137C46.127 47.0723 47.0508 47.1152 47.6523 46.5137C48.2539 45.9121 48.2754 44.9238 47.6094 44.3223C47.4028 44.144 47.1852 43.9688 46.9526 43.798C50.2338 39.9044 52.3121 34.9712 52.6346 29.5625L53.5391 29.5625C54.4199 29.5625 55.1289 28.8535 55.1289 27.9941C55.1289 27.1133 54.4199 26.4043 53.5391 26.4043L52.6335 26.4043C52.3098 21.0357 50.2611 16.1383 47.0273 12.2596C47.2346 12.1085 47.4263 11.9529 47.6094 11.7949C48.2754 11.1934 48.2539 10.2051 47.6523 9.60352C47.0508 9.00195 46.127 9.04492 45.418 9.60352C45.2513 9.73157 45.0804 9.8571 44.8823 9.96593C41.9147 7.1768 38.2506 5.12239 34.1776 4.08102C32.6316 2.59632 30.919 1.67308 29.1158 1.40813C28.8279 1.1089 28.4227 0.923828 27.9727 0.923828C27.5351 0.923828 27.1365 1.10765 26.8513 1.405Z"/>
  <path d="M26.4043 51.4978L26.4043 53.668C26.4043 54.018 26.5219 54.343 26.7208 54.6043C22.5965 53.9203 18.9265 49.8202 16.6384 43.5149C17.612 43.1877 18.6702 42.9229 19.7978 42.7138C21.4504 47.2808 23.8125 50.5628 26.4043 51.4978ZM39.3142 43.5111C37.0334 49.8094 33.3729 53.9083 29.2458 54.6026C29.4454 54.3416 29.5625 54.0172 29.5625 53.668L29.5625 51.4917C32.1549 50.5486 34.509 47.2701 36.1549 42.7118C37.2826 42.9205 38.3409 43.1846 39.3142 43.5111ZM18.8738 39.7463C17.768 39.9781 16.7117 40.2529 15.7186 40.5687C14.8299 37.3195 14.2877 33.6087 14.1966 29.5625L17.4177 29.5625C17.5191 33.2032 18.0423 36.679 18.8738 39.7463ZM40.2319 40.5643C39.2389 40.2493 38.1827 39.9751 37.0769 39.7439C37.9059 36.6771 38.4268 33.2022 38.5277 29.5625L41.7488 29.5625C41.6581 33.6069 41.118 37.3162 40.2319 40.5643ZM18.8283 16.3605C18.032 19.3692 17.5276 22.7845 17.4204 26.4043L14.2002 26.4043C14.2996 22.4147 14.8336 18.7544 15.704 15.544C16.6876 15.8573 17.7332 16.1303 18.8283 16.3605ZM41.7453 26.4043L38.525 26.4043C38.4184 22.7855 37.9162 19.3711 37.1223 16.3631C38.2174 16.1333 39.263 15.8609 40.2464 15.5484C41.1144 18.7576 41.6462 22.4165 41.7453 26.4043ZM39.3391 12.5984C38.3755 12.9229 37.3282 13.1858 36.211 13.393C34.5646 8.75201 32.1855 5.46776 29.5625 4.53266L29.5625 2.51367C29.5625 2.08734 29.3964 1.70126 29.1241 1.4173C33.3235 2.04454 37.0398 6.1908 39.3391 12.5984ZM26.4043 2.51367L26.4043 4.5267C23.782 5.45378 21.3948 8.7413 19.7417 13.3909C18.6246 13.1834 17.5773 12.9198 16.6135 12.5946C18.92 6.18021 22.6458 2.0329 26.8417 1.41567C26.571 1.69982 26.4043 2.08654 26.4043 2.51367Z"/>
  <path d="M27.9727 55.2363C28.8535 55.2363 29.5625 54.5273 29.5625 53.668L29.5625 2.51367C29.5625 1.63281 28.8535 0.923828 27.9727 0.923828C27.1133 0.923828 26.4043 1.63281 26.4043 2.51367L26.4043 53.668C26.4043 54.5273 27.1133 55.2363 27.9727 55.2363ZM10.5488 46.5137C14.3516 43.5918 20.3457 41.9805 27.9727 41.9805C35.6211 41.9805 41.6152 43.5918 45.418 46.5137C46.127 47.0723 47.0508 47.1152 47.6523 46.5137C48.2539 45.9121 48.2754 44.9238 47.6094 44.3223C43.8496 41.0781 36.4375 38.8223 27.9727 38.8223C19.5293 38.8223 12.1172 41.0781 8.35742 44.3223C7.69141 44.9238 7.69141 45.9121 8.29297 46.5137C8.91602 47.1152 9.81836 47.0723 10.5488 46.5137ZM2.85742 29.5625L53.5391 29.5625C54.4199 29.5625 55.1289 28.8535 55.1289 27.9941C55.1289 27.1133 54.4199 26.4043 53.5391 26.4043L2.85742 26.4043C1.97656 26.4043 1.26758 27.1133 1.26758 27.9941C1.26758 28.8535 1.97656 29.5625 2.85742 29.5625ZM27.9727 17.2949C36.4375 17.2949 43.8496 15.0391 47.6094 11.7949C48.2754 11.1934 48.2539 10.2051 47.6523 9.60352C47.0508 9.00195 46.127 9.04492 45.418 9.60352C41.6152 12.5254 35.6211 14.1367 27.9727 14.1367C20.3457 14.1367 14.3516 12.5254 10.5488 9.60352C9.81836 9.04492 8.91602 9.00195 8.29297 9.60352C7.69141 10.2051 7.69141 11.1934 8.35742 11.7949C12.1172 15.0391 19.5293 17.2949 27.9727 17.2949Z"/>
</svg>
